<svg id="svg" version="1.1" width="400" height="349.4082840236686" viewBox="0 0 400 349.4082840236686" xmlns="http://www.w3.org/2000/svg" xmlns:xlink="http://www.w3.org/1999/xlink" ><g id="svgg"><path id="path0" d="M14.201 89.793 L 14.201 146.746 26.036 146.746 L 37.870 146.746 37.870 124.112 L 37.870 101.479 57.249 101.479 L 76.627 101.479 76.627 91.716 L 76.627 81.953 57.249 81.953 L 37.870 81.953 37.870 67.160 L 37.870 52.367 58.728 52.367 L 79.586 52.367 79.586 42.604 L 79.586 32.840 46.893 32.840 L 14.201 32.840 14.201 89.793 M101.775 89.770 L 101.775 146.746 113.905 146.746 L 126.036 146.746 126.036 124.852 L 126.036 102.959 132.513 102.959 L 138.990 102.959 152.557 124.839 L 166.124 146.719 179.513 146.732 L 192.902 146.746 190.100 142.678 C 185.144 135.480,159.769 97.696,159.617 97.288 C 159.520 97.026,160.497 96.366,162.526 95.323 C 174.307 89.269,180.474 79.336,180.473 66.420 C 180.471 49.143,171.555 38.465,153.915 34.615 C 146.763 33.054,146.803 33.056,123.595 32.921 L 101.775 32.794 101.775 89.770 M207.396 89.793 L 207.396 146.746 240.089 146.746 L 272.781 146.746 272.815 142.825 C 272.834 140.669,272.870 136.209,272.895 132.914 L 272.941 126.923 252.151 126.923 L 231.361 126.923 231.361 112.130 L 231.361 97.337 250.740 97.337 L 270.118 97.337 270.118 87.426 L 270.118 77.515 250.740 77.515 L 231.361 77.515 231.361 64.941 L 231.361 52.367 252.051 52.367 C 271.503 52.367,272.750 52.336,272.887 51.849 C 272.967 51.564,273.039 47.171,273.048 42.086 L 273.063 32.840 240.230 32.840 L 207.396 32.840 207.396 89.793 M296.910 89.275 C 296.961 120.314,297.012 145.943,297.022 146.228 C 297.045 146.843,326.019 147.001,335.337 146.436 C 370.130 144.328,389.145 126.412,391.155 93.844 C 393.304 59.003,375.144 36.659,341.931 33.280 C 338.704 32.952,332.948 32.851,317.270 32.846 L 296.818 32.840 296.910 89.275 M137.918 52.664 C 150.909 53.600,156.221 57.933,156.210 67.583 C 156.196 78.733,149.962 82.925,132.766 83.350 L 126.036 83.517 126.036 67.942 L 126.036 52.367 129.956 52.369 C 132.112 52.371,135.695 52.503,137.918 52.664 M341.568 53.075 C 358.717 56.030,366.751 68.419,366.195 91.052 C 365.558 116.984,354.469 126.906,326.109 126.920 L 321.006 126.923 321.006 89.604 L 321.006 52.286 329.956 52.451 C 336.000 52.562,339.770 52.765,341.568 53.075 M219.231 206.987 C 185.550 209.147,166.892 233.869,169.539 272.831 C 171.057 295.182,179.175 310.025,194.379 318.252 C 207.638 325.428,229.904 325.847,248.560 319.272 L 251.627 318.191 251.705 308.079 L 251.783 297.967 248.360 299.117 C 211.569 311.477,194.171 300.726,194.251 265.680 C 194.286 250.511,196.994 241.590,203.665 234.660 C 213.139 224.819,225.342 224.321,245.006 232.976 C 246.681 233.713,248.140 234.217,248.249 234.096 C 248.392 233.936,253.737 220.603,255.819 215.211 C 256.046 214.625,248.209 211.430,242.546 209.800 C 235.303 207.715,225.786 206.567,219.231 206.987 M31.065 265.533 L 31.065 322.485 66.272 322.485 L 101.479 322.485 101.479 312.574 L 101.479 302.663 78.283 302.663 L 55.087 302.663 55.132 255.621 L 55.178 208.580 43.121 208.580 L 31.065 208.580 31.065 265.533 M121.302 265.533 L 121.302 322.485 133.432 322.485 L 145.562 322.485 145.562 265.533 L 145.562 208.580 133.432 208.580 L 121.302 208.580 121.302 265.533 M276.036 265.533 L 276.036 322.485 288.018 322.485 L 300.000 322.485 300.074 303.920 C 300.115 293.709,300.148 282.592,300.148 279.216 L 300.148 273.076 322.855 273.077 L 345.562 273.077 345.562 297.781 L 345.562 322.485 357.396 322.485 L 369.231 322.485 369.231 265.533 L 369.231 208.580 357.396 208.580 L 345.562 208.580 345.562 230.917 L 345.562 253.254 322.770 253.254 L 299.977 253.254 300.097 230.917 L 300.217 208.580 288.126 208.580 L 276.036 208.580 276.036 265.533 M9.999 349.333 C 11.349 349.388,13.480 349.387,14.733 349.332 C 15.986 349.277,14.882 349.232,12.278 349.232 C 9.675 349.233,8.649 349.278,9.999 349.333 M26.109 349.324 C 26.557 349.392,27.289 349.392,27.737 349.324 C 28.184 349.257,27.818 349.201,26.923 349.201 C 26.028 349.201,25.662 349.257,26.109 349.324 M35.581 349.325 C 36.031 349.393,36.696 349.391,37.060 349.321 C 37.424 349.250,37.056 349.195,36.243 349.197 C 35.429 349.199,35.131 349.257,35.581 349.325 M184.083 349.332 C 185.498 349.387,187.895 349.387,189.408 349.333 C 190.922 349.279,189.763 349.235,186.834 349.235 C 183.905 349.234,182.667 349.278,184.083 349.332 M204.078 349.331 C 204.938 349.391,206.269 349.390,207.037 349.329 C 207.804 349.269,207.101 349.220,205.473 349.220 C 203.846 349.221,203.218 349.271,204.078 349.331 M229.219 349.322 C 229.587 349.392,230.120 349.390,230.403 349.316 C 230.686 349.242,230.385 349.184,229.734 349.187 C 229.083 349.190,228.851 349.251,229.219 349.322 M253.624 349.328 C 254.234 349.392,255.233 349.392,255.843 349.328 C 256.453 349.264,255.954 349.212,254.734 349.212 C 253.513 349.212,253.014 349.264,253.624 349.328 M278.485 349.330 C 279.263 349.391,280.461 349.391,281.148 349.329 C 281.835 349.267,281.198 349.217,279.734 349.217 C 278.269 349.218,277.707 349.269,278.485 349.330 " stroke="none" fill="#fbfbfb" fill-rule="evenodd"></path><path id="path1" d="M0.000 174.556 L 0.000 349.112 200.000 349.112 L 400.000 349.112 400.000 174.556 L 400.000 0.000 200.000 0.000 L 0.000 0.000 0.000 174.556 M79.586 42.604 L 79.586 52.663 58.876 52.663 L 38.166 52.663 38.166 67.308 L 38.166 81.953 57.544 81.953 L 76.923 81.953 76.923 91.864 L 76.923 101.775 57.544 101.775 L 38.166 101.775 38.166 124.260 L 38.166 146.746 26.183 146.746 L 14.201 146.746 14.201 89.645 L 14.201 32.544 46.893 32.544 L 79.586 32.544 79.586 42.604 M147.320 33.239 C 168.280 36.174,178.366 44.821,180.487 61.676 C 182.356 76.522,175.531 89.109,161.884 95.981 C 160.718 96.568,159.763 97.122,159.763 97.212 C 159.763 97.302,163.241 102.526,167.491 108.821 C 171.741 115.116,176.558 122.263,178.196 124.704 C 179.834 127.145,183.812 133.028,187.037 137.777 C 190.261 142.527,192.899 146.489,192.899 146.582 C 192.899 146.675,186.822 146.717,179.393 146.675 L 165.887 146.598 152.371 124.852 L 138.855 103.107 132.445 103.027 L 126.036 102.947 126.036 124.846 L 126.036 146.746 113.905 146.746 L 101.775 146.746 101.775 89.620 L 101.775 32.494 122.855 32.629 C 140.026 32.740,144.563 32.853,147.320 33.239 M273.077 42.604 L 273.077 52.663 252.367 52.663 L 231.657 52.663 231.657 65.089 L 231.657 77.515 250.888 77.515 L 270.118 77.515 270.118 87.426 L 270.118 97.337 250.888 97.337 L 231.657 97.337 231.657 111.982 L 231.657 126.627 252.367 126.627 L 273.077 126.627 273.077 136.686 L 273.077 146.746 240.089 146.746 L 207.101 146.746 207.101 89.645 L 207.101 32.544 240.089 32.544 L 273.077 32.544 273.077 42.604 M338.757 32.844 C 372.683 35.166,391.420 55.034,391.420 88.684 C 391.420 122.926,373.910 142.522,339.941 146.296 C 336.796 146.646,331.781 146.740,316.346 146.743 L 296.746 146.746 296.746 89.645 L 296.746 32.544 315.607 32.547 C 325.980 32.549,336.398 32.682,338.757 32.844 M126.036 67.935 L 126.036 83.208 133.358 83.051 C 148.928 82.716,154.748 79.288,155.944 69.748 C 157.451 57.726,150.157 52.663,131.330 52.663 L 126.036 52.663 126.036 67.935 M321.006 89.683 L 321.006 126.703 329.364 126.540 C 343.362 126.268,349.772 124.381,356.065 118.680 C 368.653 107.278,369.854 76.272,358.259 62.044 C 352.656 55.170,344.792 52.663,328.831 52.663 L 321.006 52.663 321.006 89.683 M233.432 207.531 C 241.601 208.850,256.610 213.923,256.121 215.199 C 254.898 218.385,248.415 234.227,248.272 234.378 C 248.165 234.492,246.879 234.045,245.414 233.386 C 226.236 224.749,213.624 225.007,204.258 234.229 C 191.164 247.121,190.553 283.333,203.207 296.545 C 211.447 305.149,227.762 305.970,248.650 298.833 C 250.105 298.336,251.403 297.929,251.535 297.929 C 251.667 297.929,251.775 302.508,251.775 308.104 L 251.775 318.278 248.447 319.490 C 234.791 324.460,217.436 325.511,204.168 322.172 C 180.135 316.124,167.382 293.493,169.251 260.211 C 170.948 229.993,187.310 211.041,215.089 207.119 C 218.146 206.687,229.835 206.949,233.432 207.531 M55.325 255.325 L 55.325 302.367 78.402 302.367 L 101.479 302.367 101.479 312.426 L 101.479 322.485 66.272 322.485 L 31.065 322.485 31.065 265.385 L 31.065 208.284 43.195 208.284 L 55.325 208.284 55.325 255.325 M145.562 265.385 L 145.562 322.485 133.432 322.485 L 121.302 322.485 121.302 265.385 L 121.302 208.284 133.432 208.284 L 145.562 208.284 145.562 265.385 M300.296 230.621 L 300.296 252.959 322.781 252.959 L 345.266 252.959 345.266 230.621 L 345.266 208.284 357.396 208.284 L 369.527 208.284 369.527 265.385 L 369.527 322.485 357.396 322.485 L 345.266 322.485 345.266 297.929 L 345.266 273.373 322.781 273.373 L 300.296 273.373 300.296 297.929 L 300.296 322.485 288.166 322.485 L 276.036 322.485 276.036 265.385 L 276.036 208.284 288.166 208.284 L 300.296 208.284 300.296 230.621 " stroke="none" fill="#11113f" fill-rule="evenodd"></path><path id="path2" d="M29.808 32.766 C 38.473 32.810,52.652 32.810,61.317 32.766 C 69.982 32.723,62.892 32.687,45.562 32.687 C 28.232 32.687,21.143 32.723,29.808 32.766 M109.964 32.766 C 114.549 32.812,122.138 32.812,126.828 32.766 C 131.518 32.720,127.766 32.683,118.491 32.683 C 109.216 32.683,105.379 32.720,109.964 32.766 M211.330 32.765 C 212.599 32.820,214.596 32.820,215.768 32.764 C 216.940 32.708,215.902 32.662,213.462 32.663 C 211.021 32.663,210.062 32.709,211.330 32.765 M218.713 32.756 C 219.161 32.824,219.893 32.824,220.340 32.756 C 220.788 32.688,220.422 32.633,219.527 32.633 C 218.632 32.633,218.266 32.688,218.713 32.756 M223.162 32.763 C 224.103 32.822,225.568 32.822,226.416 32.762 C 227.264 32.703,226.494 32.654,224.704 32.655 C 222.914 32.656,222.220 32.704,223.162 32.763 M268.121 32.763 C 269.057 32.822,270.588 32.822,271.524 32.763 C 272.459 32.704,271.694 32.656,269.822 32.656 C 267.951 32.656,267.186 32.704,268.121 32.763 M312.509 32.762 C 313.287 32.823,314.485 32.823,315.172 32.761 C 315.858 32.699,315.222 32.648,313.757 32.649 C 312.293 32.650,311.731 32.701,312.509 32.762 M37.941 67.234 L 38.012 82.101 38.092 67.384 L 38.171 52.667 58.952 52.589 L 79.734 52.511 58.802 52.439 L 37.870 52.367 37.941 67.234 M128.342 52.587 C 129.693 52.642,131.823 52.642,133.076 52.587 C 134.330 52.531,133.225 52.486,130.621 52.487 C 128.018 52.487,126.992 52.532,128.342 52.587 M261.038 52.588 C 263.122 52.639,266.451 52.639,268.434 52.588 C 270.418 52.537,268.713 52.495,264.645 52.495 C 260.577 52.495,258.954 52.537,261.038 52.588 M231.456 70.414 C 231.456 71.472,231.509 71.905,231.575 71.376 C 231.641 70.847,231.641 69.982,231.575 69.453 C 231.509 68.924,231.456 69.357,231.456 70.414 M391.209 84.172 C 391.211 84.985,391.269 85.283,391.337 84.833 C 391.405 84.383,391.403 83.718,391.333 83.354 C 391.262 82.990,391.207 83.358,391.209 84.172 M391.209 93.343 C 391.211 94.157,391.269 94.455,391.337 94.005 C 391.405 93.555,391.403 92.889,391.333 92.526 C 391.262 92.162,391.207 92.530,391.209 93.343 M37.941 116.790 L 38.012 132.101 38.092 116.940 L 38.171 101.779 57.473 101.701 L 76.775 101.623 57.322 101.551 L 37.870 101.479 37.941 116.790 M247.115 126.847 C 248.214 126.904,250.011 126.904,251.109 126.847 C 252.208 126.790,251.309 126.743,249.112 126.743 C 246.916 126.743,246.017 126.790,247.115 126.847 M262.944 126.845 C 263.798 126.905,265.196 126.905,266.050 126.845 C 266.905 126.786,266.206 126.737,264.497 126.737 C 262.788 126.737,262.089 126.786,262.944 126.845 M330.847 126.840 C 331.297 126.908,331.963 126.906,332.327 126.835 C 332.690 126.765,332.322 126.710,331.509 126.712 C 330.695 126.714,330.398 126.772,330.847 126.840 M333.510 146.662 C 333.960 146.730,334.625 146.728,334.989 146.658 C 335.353 146.588,334.985 146.532,334.172 146.534 C 333.358 146.537,333.060 146.594,333.510 146.662 M276.553 208.493 C 276.919 208.563,277.518 208.563,277.885 208.493 C 278.251 208.422,277.951 208.365,277.219 208.365 C 276.487 208.365,276.187 208.422,276.553 208.493 M169.305 271.450 C 169.309 272.101,169.369 272.332,169.440 271.964 C 169.511 271.596,169.508 271.063,169.434 270.781 C 169.360 270.498,169.302 270.799,169.305 271.450 M203.402 297.041 C 204.204 297.855,204.926 298.521,205.007 298.521 C 205.089 298.521,204.500 297.855,203.698 297.041 C 202.897 296.228,202.175 295.562,202.093 295.562 C 202.012 295.562,202.601 296.228,203.402 297.041 M75.084 302.585 C 75.944 302.645,77.275 302.645,78.042 302.584 C 78.810 302.523,78.107 302.474,76.479 302.475 C 74.852 302.476,74.224 302.525,75.084 302.585 M91.774 302.587 C 93.514 302.640,96.443 302.640,98.282 302.588 C 100.122 302.536,98.698 302.493,95.118 302.493 C 91.538 302.493,90.033 302.535,91.774 302.587 M182.544 309.264 C 182.544 309.315,182.977 309.748,183.506 310.226 L 184.467 311.095 183.598 310.133 C 182.788 309.237,182.544 309.036,182.544 309.264 M225.669 323.878 C 226.037 323.949,226.570 323.946,226.853 323.872 C 227.135 323.798,226.834 323.740,226.183 323.743 C 225.533 323.747,225.301 323.807,225.669 323.878 " stroke="none" fill="#a49ca4" fill-rule="evenodd"></path><path id="path3" d="M77.593 32.757 C 78.043 32.825,78.708 32.823,79.072 32.753 C 79.436 32.682,79.068 32.627,78.254 32.629 C 77.441 32.631,77.143 32.689,77.593 32.757 M207.766 32.748 C 208.051 32.823,208.517 32.823,208.802 32.748 C 209.087 32.674,208.854 32.613,208.284 32.613 C 207.714 32.613,207.482 32.674,207.766 32.748 M237.522 32.766 C 242.944 32.811,251.731 32.811,257.048 32.766 C 262.365 32.721,257.929 32.684,247.189 32.684 C 236.450 32.684,232.099 32.721,237.522 32.766 M300.387 32.766 C 302.471 32.817,305.800 32.816,307.783 32.765 C 309.767 32.714,308.062 32.672,303.994 32.673 C 299.926 32.673,298.303 32.715,300.387 32.766 M320.488 32.766 C 322.888 32.815,326.816 32.815,329.216 32.766 C 331.616 32.716,329.652 32.675,324.852 32.675 C 320.052 32.675,318.088 32.716,320.488 32.766 M231.430 60.577 L 231.499 68.787 231.583 60.728 L 231.666 52.669 244.605 52.589 L 257.544 52.508 244.453 52.438 L 231.361 52.367 231.430 60.577 M322.411 52.585 C 323.266 52.645,324.663 52.645,325.518 52.585 C 326.372 52.525,325.673 52.476,323.964 52.476 C 322.256 52.476,321.557 52.525,322.411 52.585 M328.932 52.586 C 329.955 52.644,331.553 52.644,332.482 52.585 C 333.411 52.527,332.574 52.479,330.621 52.480 C 328.669 52.480,327.908 52.528,328.932 52.586 M231.468 74.852 C 231.468 76.398,231.517 77.030,231.578 76.257 C 231.639 75.484,231.639 74.220,231.578 73.447 C 231.517 72.674,231.468 73.306,231.468 74.852 M231.432 112.056 L 231.361 126.923 237.500 126.856 L 243.639 126.788 237.651 126.702 L 231.662 126.615 231.583 111.902 L 231.503 97.189 231.432 112.056 M255.117 126.847 C 256.386 126.903,258.383 126.903,259.555 126.847 C 260.727 126.791,259.689 126.745,257.249 126.746 C 254.808 126.746,253.849 126.792,255.117 126.847 M268.871 126.846 C 269.731 126.906,271.062 126.905,271.829 126.844 C 272.597 126.784,271.893 126.735,270.266 126.735 C 268.639 126.736,268.011 126.786,268.871 126.846 M323.313 126.848 C 324.663 126.903,326.793 126.902,328.047 126.847 C 329.300 126.792,328.195 126.747,325.592 126.747 C 322.988 126.747,321.963 126.793,323.313 126.848 M37.998 139.349 C 37.998 143.499,38.040 145.196,38.091 143.121 C 38.142 141.047,38.142 137.652,38.091 135.577 C 38.040 133.502,37.998 135.200,37.998 139.349 M37.056 208.506 C 40.433 208.553,45.958 208.553,49.334 208.506 C 52.711 208.458,49.948 208.419,43.195 208.419 C 36.442 208.419,33.680 208.458,37.056 208.506 M127.293 208.506 C 130.669 208.553,136.195 208.553,139.571 208.506 C 142.947 208.458,140.185 208.419,133.432 208.419 C 126.679 208.419,123.916 208.458,127.293 208.506 M283.802 208.506 C 286.853 208.554,291.845 208.554,294.896 208.506 C 297.947 208.457,295.451 208.418,289.349 208.418 C 283.247 208.418,280.751 208.457,283.802 208.506 M351.257 208.506 C 354.634 208.553,360.159 208.553,363.536 208.506 C 366.912 208.458,364.149 208.419,357.396 208.419 C 350.643 208.419,347.881 208.458,351.257 208.506 M311.464 253.180 C 317.689 253.225,327.874 253.225,334.098 253.180 C 340.322 253.136,335.229 253.099,322.781 253.099 C 310.333 253.099,305.240 253.136,311.464 253.180 M311.464 273.299 C 317.689 273.343,327.874 273.343,334.098 273.299 C 340.322 273.254,335.229 273.218,322.781 273.218 C 310.333 273.218,305.240 273.254,311.464 273.299 M59.837 302.588 C 62.400 302.637,66.594 302.637,69.157 302.588 C 71.720 302.539,69.623 302.499,64.497 302.499 C 59.371 302.499,57.274 302.539,59.837 302.588 M81.583 302.587 C 82.925 302.642,85.122 302.642,86.464 302.587 C 87.807 302.532,86.709 302.487,84.024 302.487 C 81.339 302.487,80.240 302.532,81.583 302.587 " stroke="none" fill="#a49c9c" fill-rule="evenodd"></path><path id="path4" d="" stroke="none" fill="#85797d" fill-rule="evenodd"></path><path id="path5" d="M207.246 89.645 C 207.246 121.132,207.280 134.013,207.322 118.269 C 207.365 102.526,207.365 76.764,207.322 61.021 C 207.280 45.277,207.246 58.158,207.246 89.645 M76.760 91.864 C 76.760 97.396,76.800 99.618,76.849 96.801 C 76.897 93.983,76.897 89.457,76.849 86.741 C 76.800 84.026,76.760 86.331,76.760 91.864 M127.872 83.355 C 128.963 83.412,130.827 83.412,132.014 83.356 C 133.201 83.300,132.308 83.253,130.030 83.253 C 127.751 83.252,126.780 83.298,127.872 83.355 " stroke="none" fill="#7a6c6c" fill-rule="evenodd"></path><path id="path6" d="M296.847 38.018 C 296.848 39.320,296.900 39.815,296.963 39.119 C 297.025 38.424,297.024 37.358,296.961 36.753 C 296.897 36.147,296.846 36.716,296.847 38.018 M272.850 43.491 C 272.850 44.061,272.911 44.294,272.985 44.009 C 273.059 43.724,273.059 43.258,272.985 42.973 C 272.911 42.689,272.850 42.922,272.850 43.491 M296.860 48.225 C 296.860 50.259,296.907 51.091,296.965 50.074 C 297.022 49.057,297.022 47.393,296.965 46.376 C 296.907 45.359,296.860 46.191,296.860 48.225 M296.830 59.615 C 296.832 60.429,296.890 60.727,296.958 60.277 C 297.026 59.827,297.024 59.162,296.954 58.798 C 296.884 58.434,296.828 58.802,296.830 59.615 M296.849 85.207 C 296.849 86.590,296.900 87.156,296.962 86.464 C 297.024 85.773,297.024 84.641,296.962 83.950 C 296.900 83.258,296.849 83.824,296.849 85.207 M296.862 94.527 C 296.863 96.805,296.909 97.698,296.965 96.511 C 297.022 95.324,297.021 93.460,296.965 92.369 C 296.908 91.277,296.862 92.249,296.862 94.527 M296.830 109.320 C 296.832 110.133,296.890 110.431,296.958 109.981 C 297.026 109.531,297.024 108.866,296.954 108.502 C 296.884 108.138,296.828 108.506,296.830 109.320 M296.859 117.899 C 296.859 119.852,296.907 120.612,296.965 119.589 C 297.023 118.566,297.022 116.968,296.964 116.039 C 296.905 115.109,296.858 115.947,296.859 117.899 M296.878 135.207 C 296.878 140.496,296.918 142.659,296.967 140.015 C 297.016 137.371,297.016 133.044,296.967 130.399 C 296.918 127.755,296.878 129.919,296.878 135.207 M272.889 132.692 C 272.890 134.320,272.940 134.947,273.000 134.088 C 273.059 133.228,273.059 131.897,272.998 131.129 C 272.937 130.362,272.888 131.065,272.889 132.692 M272.898 142.751 C 272.898 145.030,272.945 145.922,273.001 144.736 C 273.057 143.549,273.057 141.685,273.000 140.594 C 272.943 139.502,272.897 140.473,272.898 142.751 M345.407 230.917 C 345.407 243.284,345.443 248.300,345.488 242.064 C 345.533 235.828,345.533 225.709,345.488 219.579 C 345.443 213.448,345.407 218.550,345.407 230.917 M369.376 265.533 C 369.376 296.938,369.410 309.742,369.453 293.985 C 369.495 278.229,369.495 252.534,369.453 236.885 C 369.410 221.236,369.376 234.127,369.376 265.533 M300.113 216.124 C 300.114 218.077,300.161 218.837,300.219 217.814 C 300.277 216.790,300.277 215.193,300.218 214.264 C 300.160 213.334,300.112 214.172,300.113 216.124 M55.173 253.402 C 55.173 272.604,55.208 280.415,55.251 270.761 C 55.295 261.107,55.295 245.397,55.251 235.850 C 55.208 226.303,55.173 234.201,55.173 253.402 M300.107 230.178 C 300.107 231.723,300.157 232.356,300.217 231.583 C 300.278 230.810,300.278 229.545,300.217 228.772 C 300.157 227.999,300.107 228.632,300.107 230.178 M300.132 244.231 C 300.131 249.275,300.172 251.380,300.221 248.909 C 300.271 246.438,300.271 242.310,300.221 239.737 C 300.172 237.164,300.132 239.186,300.132 244.231 M345.408 297.781 C 345.408 311.450,345.444 316.998,345.488 310.111 C 345.532 303.224,345.532 292.040,345.488 285.259 C 345.444 278.477,345.408 284.112,345.408 297.781 M300.139 303.994 C 300.139 314.246,300.176 318.396,300.222 313.218 C 300.267 308.040,300.267 299.653,300.222 294.579 C 300.176 289.506,300.139 293.743,300.139 303.994 M55.133 300.296 C 55.133 301.679,55.184 302.245,55.246 301.553 C 55.309 300.862,55.309 299.730,55.246 299.038 C 55.184 298.347,55.133 298.913,55.133 300.296 M1.849 349.332 C 2.947 349.389,4.745 349.389,5.843 349.332 C 6.942 349.275,6.043 349.228,3.846 349.228 C 1.649 349.228,0.751 349.275,1.849 349.332 M19.022 349.333 C 20.291 349.388,22.288 349.388,23.460 349.332 C 24.633 349.276,23.595 349.230,21.154 349.231 C 18.713 349.231,17.754 349.277,19.022 349.333 M29.956 349.331 C 30.891 349.390,32.422 349.390,33.358 349.331 C 34.294 349.272,33.528 349.224,31.657 349.224 C 29.786 349.224,29.020 349.272,29.956 349.331 M73.618 349.334 C 93.524 349.376,126.009 349.376,145.808 349.334 C 165.606 349.292,149.320 349.258,109.615 349.258 C 69.911 349.258,53.713 349.292,73.618 349.334 M194.601 349.333 C 196.106 349.387,198.569 349.387,200.074 349.333 C 201.579 349.279,200.348 349.235,197.337 349.235 C 194.327 349.235,193.095 349.279,194.601 349.333 M213.221 349.334 C 216.017 349.382,220.677 349.382,223.576 349.334 C 226.474 349.285,224.186 349.246,218.491 349.246 C 212.796 349.246,210.424 349.285,213.221 349.334 M236.169 349.334 C 239.220 349.382,244.212 349.382,247.263 349.334 C 250.314 349.286,247.818 349.246,241.716 349.246 C 235.614 349.246,233.118 349.286,236.169 349.334 M261.741 349.334 C 264.538 349.382,269.197 349.382,272.096 349.334 C 274.995 349.285,272.707 349.246,267.012 349.246 C 261.317 349.246,258.945 349.285,261.741 349.334 M311.612 349.334 C 327.844 349.377,354.405 349.377,370.636 349.334 C 386.868 349.292,373.587 349.257,341.124 349.257 C 308.661 349.257,295.381 349.292,311.612 349.334 " stroke="none" fill="#f4a49c" fill-rule="evenodd"></path><path id="path7" d="M170.544 90.015 L 169.675 90.976 170.636 90.107 C 171.165 89.629,171.598 89.197,171.598 89.146 C 171.598 88.917,171.354 89.119,170.544 90.015 " stroke="none" fill="#685a5e" fill-rule="evenodd"></path><path id="path8" d="" stroke="none" fill="#746467" fill-rule="evenodd"></path></g></svg>